<mxfile host="app.diagrams.net" agent="Mozilla/5.0 (Macintosh; Intel Mac OS X 10_15_7) AppleWebKit/605.1.15 (KHTML, like Gecko) Version/18.3.1 Safari/605.1.15" version="26.1.3">
  <diagram name="Page-1" id="L-EbtPbMt9msZ_66FGvc">
    <mxGraphModel dx="1434" dy="877" grid="0" gridSize="10" guides="1" tooltips="1" connect="1" arrows="1" fold="1" page="0" pageScale="1" pageWidth="827" pageHeight="1169" math="0" shadow="0">
      <root>
        <mxCell id="0" />
        <mxCell id="1" parent="0" />
        <mxCell id="EQPa-ZrAWWDpPOPVbHb1-1" value="" style="ellipse;shape=cloud;whiteSpace=wrap;html=1;" vertex="1" parent="1">
          <mxGeometry x="466" y="285.58" width="160" height="166" as="geometry" />
        </mxCell>
        <mxCell id="EQPa-ZrAWWDpPOPVbHb1-2" value="" style="verticalLabelPosition=bottom;html=1;verticalAlign=top;align=center;strokeColor=#b85450;fillColor=#f8cecc;shape=mxgraph.azure.user;" vertex="1" parent="1">
          <mxGeometry x="154" y="236.86" width="47.5" height="50" as="geometry" />
        </mxCell>
        <mxCell id="EQPa-ZrAWWDpPOPVbHb1-3" value="" style="verticalLabelPosition=bottom;html=1;verticalAlign=top;align=center;strokeColor=#b85450;fillColor=#f8cecc;shape=mxgraph.azure.user;" vertex="1" parent="1">
          <mxGeometry x="154" y="450" width="47.5" height="50" as="geometry" />
        </mxCell>
        <mxCell id="EQPa-ZrAWWDpPOPVbHb1-4" value="" style="verticalLabelPosition=bottom;html=1;verticalAlign=top;align=center;strokeColor=#b85450;fillColor=#f8cecc;shape=mxgraph.azure.user;" vertex="1" parent="1">
          <mxGeometry x="151.5" y="585" width="47.5" height="50" as="geometry" />
        </mxCell>
        <mxCell id="EQPa-ZrAWWDpPOPVbHb1-5" value="&lt;font color=&quot;#a20025&quot;&gt;X,&lt;/font&gt;&amp;nbsp;A&lt;sub&gt;1&lt;/sub&gt;" style="text;html=1;align=center;verticalAlign=middle;resizable=0;points=[];autosize=1;strokeColor=none;fillColor=none;fontStyle=1" vertex="1" parent="1">
          <mxGeometry x="156" y="286.86" width="50" height="30" as="geometry" />
        </mxCell>
        <mxCell id="EQPa-ZrAWWDpPOPVbHb1-6" value="" style="sketch=0;pointerEvents=1;shadow=0;dashed=0;html=1;strokeColor=#ae4132;labelPosition=center;verticalLabelPosition=bottom;verticalAlign=top;outlineConnect=0;align=center;shape=mxgraph.office.security.key_permissions;fillColor=#fad9d5;rotation=0;" vertex="1" parent="1">
          <mxGeometry x="542" y="365.1500000000001" width="20" height="36.85" as="geometry" />
        </mxCell>
        <mxCell id="EQPa-ZrAWWDpPOPVbHb1-7" value="PUBLIC CLOUD&lt;div&gt;&amp;nbsp;or BLACK MARKET&lt;/div&gt;" style="text;html=1;align=center;verticalAlign=middle;resizable=0;points=[];autosize=1;strokeColor=none;fillColor=none;fontStyle=1" vertex="1" parent="1">
          <mxGeometry x="490" y="259.85999999999996" width="130" height="40" as="geometry" />
        </mxCell>
        <mxCell id="EQPa-ZrAWWDpPOPVbHb1-8" value="randomized" style="text;html=1;align=center;verticalAlign=middle;resizable=0;points=[];autosize=1;strokeColor=none;fillColor=none;fontStyle=0" vertex="1" parent="1">
          <mxGeometry x="504" y="342" width="90" height="30" as="geometry" />
        </mxCell>
        <mxCell id="EQPa-ZrAWWDpPOPVbHb1-9" value="" style="sketch=0;pointerEvents=1;shadow=0;dashed=0;html=1;strokeColor=#ae4132;labelPosition=center;verticalLabelPosition=bottom;verticalAlign=top;outlineConnect=0;align=center;shape=mxgraph.office.security.key_permissions;fillColor=#fad9d5;rotation=0;" vertex="1" parent="1">
          <mxGeometry x="438" y="364.5700000000001" width="20" height="36.85" as="geometry" />
        </mxCell>
        <mxCell id="EQPa-ZrAWWDpPOPVbHb1-10" value="&lt;font color=&quot;#a20025&quot;&gt;X&lt;/font&gt;" style="text;html=1;align=center;verticalAlign=middle;resizable=0;points=[];autosize=1;strokeColor=none;fillColor=none;fontStyle=1" vertex="1" parent="1">
          <mxGeometry x="444" y="373.42" width="30" height="30" as="geometry" />
        </mxCell>
        <mxCell id="EQPa-ZrAWWDpPOPVbHb1-11" value="" style="endArrow=classic;html=1;rounded=0;strokeWidth=2;" edge="1" parent="1" target="EQPa-ZrAWWDpPOPVbHb1-1">
          <mxGeometry width="50" height="50" relative="1" as="geometry">
            <mxPoint x="240" y="480" as="sourcePoint" />
            <mxPoint x="515" y="452.75" as="targetPoint" />
          </mxGeometry>
        </mxCell>
        <mxCell id="EQPa-ZrAWWDpPOPVbHb1-12" value="randomize" style="text;html=1;align=center;verticalAlign=middle;resizable=0;points=[];autosize=1;strokeColor=none;fillColor=none;fontStyle=0;rotation=-20;" vertex="1" parent="1">
          <mxGeometry x="369" y="393.15" width="80" height="30" as="geometry" />
        </mxCell>
        <mxCell id="EQPa-ZrAWWDpPOPVbHb1-13" value="&lt;font color=&quot;#a20025&quot;&gt;X,&lt;/font&gt;&amp;nbsp;A&lt;sub&gt;i&lt;/sub&gt;" style="text;html=1;align=center;verticalAlign=middle;resizable=0;points=[];autosize=1;strokeColor=none;fillColor=none;fontStyle=1" vertex="1" parent="1">
          <mxGeometry x="150.25" y="500" width="50" height="30" as="geometry" />
        </mxCell>
        <mxCell id="EQPa-ZrAWWDpPOPVbHb1-14" value="&lt;font color=&quot;#a20025&quot;&gt;X,&lt;/font&gt;&amp;nbsp;A&lt;sub&gt;t&lt;/sub&gt;" style="text;html=1;align=center;verticalAlign=middle;resizable=0;points=[];autosize=1;strokeColor=none;fillColor=none;fontStyle=1" vertex="1" parent="1">
          <mxGeometry x="150.25" y="635" width="50" height="30" as="geometry" />
        </mxCell>
        <mxCell id="EQPa-ZrAWWDpPOPVbHb1-15" value="Malicious user" style="text;html=1;align=center;verticalAlign=middle;resizable=0;points=[];autosize=1;strokeColor=none;fillColor=none;fontStyle=1" vertex="1" parent="1">
          <mxGeometry x="96.5" y="429" width="100" height="30" as="geometry" />
        </mxCell>
        <mxCell id="EQPa-ZrAWWDpPOPVbHb1-16" value="" style="verticalLabelPosition=bottom;html=1;verticalAlign=top;align=center;strokeColor=#b85450;fillColor=#f8cecc;shape=mxgraph.azure.user;" vertex="1" parent="1">
          <mxGeometry x="154" y="313.86" width="47.5" height="50" as="geometry" />
        </mxCell>
        <mxCell id="EQPa-ZrAWWDpPOPVbHb1-17" value="&lt;font color=&quot;#a20025&quot;&gt;X,&lt;/font&gt;&amp;nbsp;A&lt;sub&gt;2&lt;/sub&gt;" style="text;html=1;align=center;verticalAlign=middle;resizable=0;points=[];autosize=1;strokeColor=none;fillColor=none;fontStyle=1" vertex="1" parent="1">
          <mxGeometry x="156" y="363.86" width="50" height="30" as="geometry" />
        </mxCell>
        <mxCell id="EQPa-ZrAWWDpPOPVbHb1-18" value="" style="shape=mxgraph.cisco.people.androgenous_person;html=1;pointerEvents=1;dashed=0;fillColor=#f8cecc;strokeColor=#b85450;strokeWidth=2;verticalLabelPosition=bottom;verticalAlign=top;align=center;outlineConnect=0;gradientColor=#ea6b66;" vertex="1" parent="1">
          <mxGeometry x="517" y="516" width="69" height="82" as="geometry" />
        </mxCell>
        <mxCell id="EQPa-ZrAWWDpPOPVbHb1-19" value="&lt;font color=&quot;#a20025&quot;&gt;X&lt;/font&gt;" style="text;html=1;align=center;verticalAlign=middle;resizable=0;points=[];autosize=1;strokeColor=none;fillColor=none;fontStyle=1" vertex="1" parent="1">
          <mxGeometry x="548.5" y="373.42" width="30" height="30" as="geometry" />
        </mxCell>
        <mxCell id="EQPa-ZrAWWDpPOPVbHb1-20" value="" style="endArrow=classic;html=1;rounded=0;strokeWidth=2;" edge="1" parent="1">
          <mxGeometry width="50" height="50" relative="1" as="geometry">
            <mxPoint x="540" y="443" as="sourcePoint" />
            <mxPoint x="540" y="513" as="targetPoint" />
          </mxGeometry>
        </mxCell>
        <mxCell id="EQPa-ZrAWWDpPOPVbHb1-21" value="" style="sketch=0;pointerEvents=1;shadow=0;dashed=0;html=1;strokeColor=#ae4132;labelPosition=center;verticalLabelPosition=bottom;verticalAlign=top;outlineConnect=0;align=center;shape=mxgraph.office.security.key_permissions;fillColor=#fad9d5;rotation=0;" vertex="1" parent="1">
          <mxGeometry x="570.5" y="473.5700000000001" width="20" height="36.85" as="geometry" />
        </mxCell>
        <mxCell id="EQPa-ZrAWWDpPOPVbHb1-22" value="&lt;font color=&quot;#a20025&quot;&gt;X&lt;/font&gt;" style="text;html=1;align=center;verticalAlign=middle;resizable=0;points=[];autosize=1;strokeColor=none;fillColor=none;fontStyle=1" vertex="1" parent="1">
          <mxGeometry x="577.5" y="482" width="30" height="30" as="geometry" />
        </mxCell>
        <mxCell id="EQPa-ZrAWWDpPOPVbHb1-23" value="" style="endArrow=classic;html=1;rounded=0;" edge="1" parent="1">
          <mxGeometry width="50" height="50" relative="1" as="geometry">
            <mxPoint x="510" y="530" as="sourcePoint" />
            <mxPoint x="210" y="280" as="targetPoint" />
          </mxGeometry>
        </mxCell>
        <mxCell id="EQPa-ZrAWWDpPOPVbHb1-24" value="" style="endArrow=classic;html=1;rounded=0;entryX=1.06;entryY=-0.073;entryDx=0;entryDy=0;entryPerimeter=0;" edge="1" parent="1" target="EQPa-ZrAWWDpPOPVbHb1-17">
          <mxGeometry width="50" height="50" relative="1" as="geometry">
            <mxPoint x="510" y="540" as="sourcePoint" />
            <mxPoint x="230" y="410" as="targetPoint" />
          </mxGeometry>
        </mxCell>
        <mxCell id="EQPa-ZrAWWDpPOPVbHb1-25" value="" style="endArrow=classic;html=1;rounded=0;" edge="1" parent="1">
          <mxGeometry width="50" height="50" relative="1" as="geometry">
            <mxPoint x="510" y="550" as="sourcePoint" />
            <mxPoint x="220" y="500" as="targetPoint" />
          </mxGeometry>
        </mxCell>
        <mxCell id="EQPa-ZrAWWDpPOPVbHb1-26" value="" style="endArrow=classic;html=1;rounded=0;" edge="1" parent="1">
          <mxGeometry width="50" height="50" relative="1" as="geometry">
            <mxPoint x="510" y="570" as="sourcePoint" />
            <mxPoint x="210" y="620" as="targetPoint" />
          </mxGeometry>
        </mxCell>
        <mxCell id="EQPa-ZrAWWDpPOPVbHb1-27" value="&lt;b&gt;&lt;font color=&quot;#ff0000&quot; style=&quot;font-size: 22px;&quot;&gt;?&lt;/font&gt;&lt;/b&gt;" style="text;html=1;align=center;verticalAlign=middle;resizable=0;points=[];autosize=1;strokeColor=none;fillColor=none;" vertex="1" parent="1">
          <mxGeometry x="193.75" y="250.93" width="40" height="40" as="geometry" />
        </mxCell>
        <mxCell id="EQPa-ZrAWWDpPOPVbHb1-28" value="&lt;b&gt;&lt;font color=&quot;#ff0000&quot; style=&quot;font-size: 22px;&quot;&gt;?&lt;/font&gt;&lt;/b&gt;" style="text;html=1;align=center;verticalAlign=middle;resizable=0;points=[];autosize=1;strokeColor=none;fillColor=none;" vertex="1" parent="1">
          <mxGeometry x="191.25" y="329.94" width="40" height="40" as="geometry" />
        </mxCell>
        <mxCell id="EQPa-ZrAWWDpPOPVbHb1-29" value="&lt;b&gt;&lt;font color=&quot;#ff0000&quot; style=&quot;font-size: 22px;&quot;&gt;?&lt;/font&gt;&lt;/b&gt;" style="text;html=1;align=center;verticalAlign=middle;resizable=0;points=[];autosize=1;strokeColor=none;fillColor=none;" vertex="1" parent="1">
          <mxGeometry x="289" y="477.25" width="40" height="40" as="geometry" />
        </mxCell>
        <mxCell id="EQPa-ZrAWWDpPOPVbHb1-30" value="&lt;b&gt;&lt;font color=&quot;#ff0000&quot; style=&quot;font-size: 22px;&quot;&gt;?&lt;/font&gt;&lt;/b&gt;" style="text;html=1;align=center;verticalAlign=middle;resizable=0;points=[];autosize=1;strokeColor=none;fillColor=none;" vertex="1" parent="1">
          <mxGeometry x="294" y="571" width="40" height="40" as="geometry" />
        </mxCell>
        <mxCell id="EQPa-ZrAWWDpPOPVbHb1-31" value="Authority" style="text;html=1;align=center;verticalAlign=middle;resizable=0;points=[];autosize=1;strokeColor=none;fillColor=none;fontStyle=1" vertex="1" parent="1">
          <mxGeometry x="517" y="594" width="70" height="30" as="geometry" />
        </mxCell>
        <mxCell id="EQPa-ZrAWWDpPOPVbHb1-32" value="" style="endArrow=none;dashed=1;html=1;dashPattern=1 3;strokeWidth=3;rounded=0;" edge="1" parent="1">
          <mxGeometry width="50" height="50" relative="1" as="geometry">
            <mxPoint x="180.5" y="577" as="sourcePoint" />
            <mxPoint x="181" y="527" as="targetPoint" />
          </mxGeometry>
        </mxCell>
        <mxCell id="EQPa-ZrAWWDpPOPVbHb1-33" value="" style="endArrow=none;dashed=1;html=1;dashPattern=1 3;strokeWidth=3;rounded=0;" edge="1" parent="1">
          <mxGeometry width="50" height="50" relative="1" as="geometry">
            <mxPoint x="180.5" y="434.5" as="sourcePoint" />
            <mxPoint x="181" y="392" as="targetPoint" />
          </mxGeometry>
        </mxCell>
        <mxCell id="EQPa-ZrAWWDpPOPVbHb1-34" value="User 1" style="text;html=1;align=center;verticalAlign=middle;resizable=0;points=[];autosize=1;strokeColor=none;fillColor=none;fontStyle=1" vertex="1" parent="1">
          <mxGeometry x="92" y="258" width="60" height="30" as="geometry" />
        </mxCell>
        <mxCell id="EQPa-ZrAWWDpPOPVbHb1-35" value="User 2" style="text;html=1;align=center;verticalAlign=middle;resizable=0;points=[];autosize=1;strokeColor=none;fillColor=none;fontStyle=1" vertex="1" parent="1">
          <mxGeometry x="91.5" y="329" width="60" height="30" as="geometry" />
        </mxCell>
        <mxCell id="EQPa-ZrAWWDpPOPVbHb1-36" value="User i" style="text;html=1;align=center;verticalAlign=middle;resizable=0;points=[];autosize=1;strokeColor=none;fillColor=none;fontStyle=1" vertex="1" parent="1">
          <mxGeometry x="96.5" y="470" width="50" height="30" as="geometry" />
        </mxCell>
        <mxCell id="EQPa-ZrAWWDpPOPVbHb1-37" value="User t" style="text;html=1;align=center;verticalAlign=middle;resizable=0;points=[];autosize=1;strokeColor=none;fillColor=none;fontStyle=1" vertex="1" parent="1">
          <mxGeometry x="94" y="605" width="60" height="30" as="geometry" />
        </mxCell>
        <mxCell id="EQPa-ZrAWWDpPOPVbHb1-38" value="randomized" style="text;html=1;align=center;verticalAlign=middle;resizable=0;points=[];autosize=1;strokeColor=none;fillColor=none;fontStyle=0" vertex="1" parent="1">
          <mxGeometry x="536" y="450" width="90" height="30" as="geometry" />
        </mxCell>
        <mxCell id="EQPa-ZrAWWDpPOPVbHb1-39" value="" style="sketch=0;pointerEvents=1;shadow=0;dashed=0;html=1;strokeColor=#ae4132;labelPosition=center;verticalLabelPosition=bottom;verticalAlign=top;outlineConnect=0;align=center;shape=mxgraph.office.security.key_permissions;fillColor=#fad9d5;rotation=0;" vertex="1" parent="1">
          <mxGeometry x="324.5" y="559.57" width="20" height="36.85" as="geometry" />
        </mxCell>
        <mxCell id="EQPa-ZrAWWDpPOPVbHb1-40" value="&lt;font color=&quot;#a20025&quot;&gt;X&lt;/font&gt;" style="text;html=1;align=center;verticalAlign=middle;resizable=0;points=[];autosize=1;strokeColor=none;fillColor=none;fontStyle=1" vertex="1" parent="1">
          <mxGeometry x="331.5" y="567.9999999999999" width="30" height="30" as="geometry" />
        </mxCell>
        <mxCell id="EQPa-ZrAWWDpPOPVbHb1-41" value="randomized" style="text;html=1;align=center;verticalAlign=middle;resizable=0;points=[];autosize=1;strokeColor=none;fillColor=none;fontStyle=0" vertex="1" parent="1">
          <mxGeometry x="289.5" y="535.9999999999999" width="90" height="30" as="geometry" />
        </mxCell>
        <mxCell id="EQPa-ZrAWWDpPOPVbHb1-42" value="" style="sketch=0;pointerEvents=1;shadow=0;dashed=0;html=1;strokeColor=#ae4132;labelPosition=center;verticalLabelPosition=bottom;verticalAlign=top;outlineConnect=0;align=center;shape=mxgraph.office.security.key_permissions;fillColor=#fad9d5;rotation=0;" vertex="1" parent="1">
          <mxGeometry x="319.5" y="476.32000000000005" width="20" height="36.85" as="geometry" />
        </mxCell>
        <mxCell id="EQPa-ZrAWWDpPOPVbHb1-43" value="&lt;font color=&quot;#a20025&quot;&gt;X&lt;/font&gt;" style="text;html=1;align=center;verticalAlign=middle;resizable=0;points=[];autosize=1;strokeColor=none;fillColor=none;fontStyle=1" vertex="1" parent="1">
          <mxGeometry x="326.5" y="484.7499999999999" width="30" height="30" as="geometry" />
        </mxCell>
        <mxCell id="EQPa-ZrAWWDpPOPVbHb1-44" value="randomized" style="text;html=1;align=center;verticalAlign=middle;resizable=0;points=[];autosize=1;strokeColor=none;fillColor=none;fontStyle=0" vertex="1" parent="1">
          <mxGeometry x="284.5" y="452.7499999999999" width="90" height="30" as="geometry" />
        </mxCell>
        <mxCell id="EQPa-ZrAWWDpPOPVbHb1-45" value="" style="sketch=0;pointerEvents=1;shadow=0;dashed=0;html=1;strokeColor=#ae4132;labelPosition=center;verticalLabelPosition=bottom;verticalAlign=top;outlineConnect=0;align=center;shape=mxgraph.office.security.key_permissions;fillColor=#fad9d5;rotation=0;" vertex="1" parent="1">
          <mxGeometry x="221.75" y="336.43000000000006" width="20" height="36.85" as="geometry" />
        </mxCell>
        <mxCell id="EQPa-ZrAWWDpPOPVbHb1-46" value="&lt;font color=&quot;#a20025&quot;&gt;X&lt;/font&gt;" style="text;html=1;align=center;verticalAlign=middle;resizable=0;points=[];autosize=1;strokeColor=none;fillColor=none;fontStyle=1" vertex="1" parent="1">
          <mxGeometry x="228.75" y="344.8599999999999" width="30" height="30" as="geometry" />
        </mxCell>
        <mxCell id="EQPa-ZrAWWDpPOPVbHb1-47" value="randomized" style="text;html=1;align=center;verticalAlign=middle;resizable=0;points=[];autosize=1;strokeColor=none;fillColor=none;fontStyle=0" vertex="1" parent="1">
          <mxGeometry x="186.75" y="312.8599999999999" width="90" height="30" as="geometry" />
        </mxCell>
        <mxCell id="EQPa-ZrAWWDpPOPVbHb1-48" value="" style="sketch=0;pointerEvents=1;shadow=0;dashed=0;html=1;strokeColor=#ae4132;labelPosition=center;verticalLabelPosition=bottom;verticalAlign=top;outlineConnect=0;align=center;shape=mxgraph.office.security.key_permissions;fillColor=#fad9d5;rotation=0;" vertex="1" parent="1">
          <mxGeometry x="223" y="250.64000000000004" width="20" height="36.85" as="geometry" />
        </mxCell>
        <mxCell id="EQPa-ZrAWWDpPOPVbHb1-49" value="&lt;font color=&quot;#a20025&quot;&gt;X&lt;/font&gt;" style="text;html=1;align=center;verticalAlign=middle;resizable=0;points=[];autosize=1;strokeColor=none;fillColor=none;fontStyle=1" vertex="1" parent="1">
          <mxGeometry x="230" y="259.0699999999999" width="30" height="30" as="geometry" />
        </mxCell>
        <mxCell id="EQPa-ZrAWWDpPOPVbHb1-50" value="randomized" style="text;html=1;align=center;verticalAlign=middle;resizable=0;points=[];autosize=1;strokeColor=none;fillColor=none;fontStyle=0" vertex="1" parent="1">
          <mxGeometry x="188" y="227.06999999999988" width="90" height="30" as="geometry" />
        </mxCell>
        <mxCell id="EQPa-ZrAWWDpPOPVbHb1-51" value="&lt;font style=&quot;caret-color: rgb(255, 0, 0); color: rgb(255, 0, 0); font-weight: 400; font-size: 13px;&quot;&gt;Anonymity level is&lt;/font&gt;&lt;span style=&quot;caret-color: rgb(255, 0, 0); color: rgb(255, 0, 0); font-weight: 400; font-size: 13px;&quot;&gt;&amp;nbsp;1/t&lt;/span&gt;" style="text;html=1;align=center;verticalAlign=middle;resizable=0;points=[];autosize=1;strokeColor=none;fillColor=none;fontStyle=1" vertex="1" parent="1">
          <mxGeometry x="243.75" y="605" width="150" height="30" as="geometry" />
        </mxCell>
        <mxCell id="EQPa-ZrAWWDpPOPVbHb1-52" value="&lt;font style=&quot;caret-color: rgb(255, 0, 0); color: rgb(255, 0, 0); font-weight: 400; font-size: 13px;&quot;&gt;Anonymity level is&lt;/font&gt;&lt;span style=&quot;caret-color: rgb(255, 0, 0); color: rgb(255, 0, 0); font-weight: 400; font-size: 13px;&quot;&gt;&amp;nbsp;1/t&lt;/span&gt;" style="text;html=1;align=center;verticalAlign=middle;resizable=0;points=[];autosize=1;strokeColor=none;fillColor=none;fontStyle=1" vertex="1" parent="1">
          <mxGeometry x="178.5" y="513" width="150" height="30" as="geometry" />
        </mxCell>
        <mxCell id="EQPa-ZrAWWDpPOPVbHb1-53" value="&lt;font style=&quot;caret-color: rgb(255, 0, 0); color: rgb(255, 0, 0); font-weight: 400; font-size: 13px;&quot;&gt;Anonymity level is&lt;/font&gt;&lt;span style=&quot;caret-color: rgb(255, 0, 0); color: rgb(255, 0, 0); font-weight: 400; font-size: 13px;&quot;&gt;&amp;nbsp;1/t&lt;/span&gt;" style="text;html=1;align=center;verticalAlign=middle;resizable=0;points=[];autosize=1;strokeColor=none;fillColor=none;fontStyle=1" vertex="1" parent="1">
          <mxGeometry x="249" y="282.86" width="150" height="30" as="geometry" />
        </mxCell>
        <mxCell id="EQPa-ZrAWWDpPOPVbHb1-54" value="&lt;font style=&quot;caret-color: rgb(255, 0, 0); color: rgb(255, 0, 0); font-weight: 400; font-size: 13px;&quot;&gt;Anonymity level is&lt;/font&gt;&lt;span style=&quot;caret-color: rgb(255, 0, 0); color: rgb(255, 0, 0); font-weight: 400; font-size: 13px;&quot;&gt;&amp;nbsp;1/t&lt;/span&gt;" style="text;html=1;align=center;verticalAlign=middle;resizable=0;points=[];autosize=1;strokeColor=none;fillColor=none;fontStyle=1" vertex="1" parent="1">
          <mxGeometry x="174.5" y="409.99999999999994" width="150" height="30" as="geometry" />
        </mxCell>
      </root>
    </mxGraphModel>
  </diagram>
</mxfile>
